<svg width="28" height="28" viewBox="0 0 32 32" fill="none" xmlns="http://www.w3.org/2000/svg">
  <path d="M16 2.884c4.272 0 4.779.016 6.467.093 4.336.197 6.362 2.248 6.559 6.559.077 1.687.092 2.195.092 6.464 0 4.273-.016 4.779-.092 6.466-.198 4.3-2.215 6.362-6.559 6.559-1.688.077-2.192.093-6.467.093-4.272 0-4.779-.016-6.466-.093-4.347-.198-6.362-2.264-6.559-6.56-.077-1.687-.093-2.192-.093-6.465 0-4.269.017-4.777.093-6.464.198-4.303 2.215-6.362 6.559-6.559 1.688-.076 2.195-.092 6.466-.092zm0-2.884c-4.345 0-4.889.019-6.596.096-5.811.267-9.043 3.493-9.31 9.31-.078 1.708-.097 2.252-.097 6.598 0 4.345.019 4.891.097 6.598.267 5.811 3.493 9.043 9.31 9.31 1.708.077 2.252.096 6.598.096 4.345 0 4.891-.019 6.598-.096 5.807-.267 9.043-3.493 9.305-9.31.078-1.707.097-2.252.097-6.598 0-4.345-.019-4.889-.096-6.596-.261-5.807-3.491-9.043-9.305-9.31-1.708-.078-2.254-.098-6.601-.098zm0 7.784c-4.537 0-8.216 3.679-8.216 8.216s3.679 8.217 8.216 8.217 8.216-3.679 8.216-8.217c0-4.537-3.679-8.216-8.216-8.216zm0 13.549c-2.945 0-5.333-2.387-5.333-5.333 0-2.945 2.388-5.333 5.333-5.333s5.333 2.388 5.333 5.333c0 2.947-2.388 5.333-5.333 5.333zm8.541-15.794c-1.061 0-1.921.86-1.921 1.92s.86 1.92 1.921 1.92c1.06 0 1.919-.86 1.919-1.92s-.859-1.92-1.919-1.92z" fill="#ABB2BF"/>
</svg>