<svg viewBox="0 0 24 24" fill="none" xmlns="http://www.w3.org/2000/svg">
<path d="M22.393 6c-.167-.29-.398-.543-.652-.69L12.926.22c-.509-.294-1.34-.294-1.848 0L2.26 5.31c-.508.293-.923 1.013-.923 1.6v10.18c0 .294.104.62.271.91.167.29.398.543.652.69l8.815 5.09c.508.293 1.339.293 1.848 0l8.815-5.09c.254-.147.485-.4.652-.69.167-.29.271-.616.271-.91V6.91c.003-.294-.1-.62-.268-.91zM12 19.109c-3.92 0-7.109-3.189-7.109-7.109S8.08 4.891 12 4.891A7.133 7.133 0 0 1 19.109 12c0 3.92-3.189 7.109-7.109 7.109z" fill="#00599C"/>
<path d="M17.312 10.632H15.83V9.15h-1.482v1.482h-1.482v1.482h1.482v1.482H15.83v-1.482h1.482V10.632zm-6.45 0H9.38V9.15H7.898v1.482H6.416v1.482h1.482v1.482H9.38v-1.482h1.482V10.632z" fill="#fff"/>
</svg>