<svg viewBox="0 0 24 24" fill="none" xmlns="http://www.w3.org/2000/svg">
<path d="M12.017 0C5.396 0 .029 5.367.029 11.987c0 5.079 3.158 9.417 7.618 11.174-.105-.949-.199-2.403.041-3.439.219-.937 1.406-5.957 1.406-5.957s-.359-.72-.359-1.781c0-1.663.967-2.911 2.168-2.911 1.024 0 1.518.769 1.518 1.688 0 1.029-.653 2.567-.992 3.992-.285 1.193.6 2.165 1.775 2.165 2.128 0 3.768-2.245 3.768-5.487 0-2.861-2.063-4.869-5.008-4.869-3.41 0-5.409 2.562-5.409 5.199 0 1.033.394 2.143.889 2.741.097.118.111.233.82.538-.09-.402-.293-1.191-.293-1.943 0-1.85 1.409-3.199 3.634-3.199 1.94 0 2.963 1.405 2.963 2.963 0 2.043-1.237 3.462-2.565 3.462-.514 0-.992-.268-1.156-.585 0 0-.323 1.229-.401 1.528-.146.562-.540 1.262-.805 1.69.607.188 1.249.289 1.917.289 6.624 0 11.99-5.367 11.99-11.99C24.007 5.367 18.641.001 12.017.001z" fill="#BD081C"/>
</svg>