<svg viewBox="0 0 24 24" fill="none" xmlns="http://www.w3.org/2000/svg">
<path d="M16.405 5.501c-.115 0-.193.014-.274.033v.013h.014c.054.104.146.18.214.274.054.107.1.214.154.32l.014-.015c.094-.066.14-.172.14-.333-.04-.047-.046-.094-.08-.14-.04-.067-.126-.1-.18-.154-.014-.014-.027-.014-.042-.014-.014 0-.014-.014-.02-.014z" fill="#00758F"/>
<path d="M18.79 15.29c-.488-1.133-1.274-2.124-2.233-2.906-.673-.547-1.407-.993-2.18-1.313-.426-.174-.873-.32-1.333-.433-.313-.08-.64-.133-.973-.16-.187-.013-.373-.013-.56 0-.946.053-1.873.32-2.706.773-.6.327-1.14.773-1.58 1.32-.373.453-.66.973-.84 1.533-.133.4-.2.827-.2 1.253 0 .507.087 1.013.267 1.487.133.353.32.686.547 1 .22.3.473.567.753.8.427.353.907.64 1.427.84.653.253 1.347.373 2.04.36.787-.013 1.573-.173 2.307-.48.427-.173.827-.4 1.187-.693.227-.18.433-.387.613-.627.12-.16.22-.333.307-.52.053-.113.093-.233.12-.36.013-.053.013-.107.02-.16.013-.067.04-.127.053-.2.013-.087.013-.18 0-.267-.027-.533-.24-1.04-.587-1.44-.227-.267-.507-.487-.827-.653-.24-.127-.507-.213-.787-.267-.373-.073-.76-.073-1.133 0-.24.047-.473.133-.693.253-.347.187-.64.467-.84.813-.133.24-.2.507-.2.787 0 .16.027.32.08.473.033.1.08.193.147.273.04.053.093.093.147.127.067.04.147.053.227.04.067-.013.133-.053.173-.113.027-.04.04-.093.04-.147 0-.067-.013-.133-.047-.187-.02-.033-.047-.06-.08-.08-.027-.013-.06-.013-.093-.007-.02.007-.04.02-.053.04-.013.027-.013.06 0 .087.013.033.04.06.073.073.02.007.047.007.073 0 .033-.013.06-.033.08-.06.013-.02.02-.047.02-.073 0-.04-.013-.08-.04-.113-.027-.04-.067-.067-.113-.08-.067-.02-.14-.013-.2.02-.053.027-.093.073-.113.133-.027.073-.027.153 0 .227.033.093.093.173.173.227.093.067.207.1.32.1.173 0 .347-.067.473-.187.127-.133.2-.307.2-.487 0-.24-.08-.473-.227-.667-.147-.193-.347-.333-.573-.4-.287-.087-.593-.087-.88 0-.213.06-.413.173-.573.327-.2.193-.347.433-.427.7-.067.213-.067.44 0 .653.08.267.227.507.427.7.253.247.573.427.927.52.24.06.487.073.733.04.327-.047.647-.16.927-.327.353-.207.653-.493.867-.84.133-.213.227-.453.267-.7.027-.16.027-.327 0-.487-.04-.24-.133-.467-.267-.667-.187-.267-.433-.487-.72-.633-.373-.193-.787-.287-1.2-.267-.547.027-1.087.2-1.567.493-.387.233-.727.547-.993.927-.2.28-.347.6-.427.933-.053.227-.067.46-.04.693.033.307.133.6.287.867.2.333.473.62.8.827.427.267.927.427 1.44.467.667.053 1.347-.067 1.947-.347.4-.187.767-.453 1.067-.793.2-.227.36-.487.467-.773.067-.187.1-.387.1-.587 0-.32-.087-.633-.247-.907-.133-.227-.32-.427-.547-.567-.287-.18-.613-.28-.947-.293-.453-.02-.907.087-1.307.307-.267.147-.5.347-.667.6-.107.16-.173.347-.193.533-.013.12 0 .24.04.353.053.147.147.273.267.367.147.113.333.173.52.173.24 0 .473-.093.64-.253.133-.127.213-.307.213-.493 0-.133-.047-.26-.133-.36-.067-.073-.16-.12-.26-.133-.073-.007-.147.007-.213.04-.053.027-.1.067-.133.12-.027.04-.04.087-.04.133 0 .053.02.107.053.147.027.033.067.053.107.06.053.013.107 0 .153-.027.033-.02.06-.053.073-.093.007-.027.007-.06-.007-.087-.013-.02-.033-.033-.06-.033-.02 0-.04.007-.053.02-.007.013-.007.033.007.047.007.007.02.007.033.007s.027-.007.033-.02c0-.013 0-.027-.013-.033-.007-.007-.02-.007-.033 0-.007.007-.007.02 0 .027.007.013.02.013.033.007.02-.013.033-.033.033-.06 0-.04-.02-.073-.053-.093-.047-.027-.107-.027-.16.007-.04.027-.067.073-.067.127 0 .073.033.14.087.187.067.053.153.08.24.067.113-.02.213-.093.267-.2.067-.133.067-.287 0-.42-.073-.16-.2-.287-.36-.353-.2-.08-.427-.073-.627.02-.267.12-.487.333-.607.6-.08.18-.1.38-.053.573.053.24.187.453.387.6.267.193.607.267.927.2.427-.087.807-.333 1.047-.693.16-.24.24-.527.227-.813-.013-.373-.147-.733-.387-1.013-.307-.36-.747-.573-1.213-.58-.6-.013-1.2.173-1.707.527-.333.233-.6.553-.773.927-.113.24-.173.507-.173.773 0 .373.093.74.267 1.067.227.427.573.787.987 1.027.527.3 1.147.427 1.767.36.8-.087 1.56-.44 2.133-1 .373-.36.66-.807.827-1.307.107-.32.147-.66.12-1-.04-.473-.2-.927-.467-1.307-.347-.493-.827-.867-1.387-1.067-.707-.253-1.473-.253-2.18 0-.893.32-1.667.927-2.153 1.747-.32.533-.48 1.147-.467 1.773.02.8.287 1.587.773 2.227.6.787 1.467 1.333 2.447 1.547.8.173 1.633.133 2.413-.12.993-.32 1.867-.967 2.427-1.84.36-.56.573-1.213.613-1.887.027-.453-.02-.907-.14-1.333-.16-.573-.453-1.107-.867-1.533-.533-.547-1.227-.887-1.973-1-.94-.14-1.907.007-2.747.42-.667.327-1.227.84-1.587 1.487-.24.433-.36.92-.347 1.413.013.627.2 1.24.533 1.773.427.667 1.067 1.187 1.827 1.487.973.38 2.067.38 3.04 0 1.24-.487 2.267-1.427 2.827-2.733.36-.84.427-1.773.187-2.653-.16-.587-.453-1.133-.853-1.587-.507-.573-1.173-.98-1.913-1.173-1.013-.267-2.093-.14-3.013.353-.687.367-1.24.947-1.573 1.667-.22.48-.307 1.007-.253 1.527.067.667.347 1.307.8 1.813.573.647 1.373 1.067 2.24 1.173 1.1.133 2.227-.173 3.093-.84.547-.42.973-1 1.2-1.667.153-.44.2-.913.133-1.38-.067-.6-.293-1.173-.667-1.653-.473-.6-1.133-1.027-1.887-1.213-1-.24-2.06-.093-2.947.413-.667.38-1.2.967-1.493 1.68-.2.48-.227 1.007-.08 1.507.173.633.547 1.207 1.067 1.62.653.52 1.493.773 2.333.693 1.067-.093 2.067-.593 2.747-1.373.427-.487.707-1.093.8-1.733.06-.427.027-.867-.107-1.28-.16-.533-.473-1.013-.907-1.373-.547-.453-1.253-.693-1.973-.673-1 .027-1.973.413-2.693 1.067-.453.413-.787.947-.96 1.547-.12.4-.133.827-.04 1.24.12.533.387 1.027.773 1.413.487.487 1.133.8 1.827.907.867.133 1.76-.027 2.507-.453.473-.267.867-.667 1.133-1.16.173-.32.267-.68.267-1.04 0-.473-.12-.933-.347-1.333-.287-.507-.72-.907-1.253-1.147-.667-.3-1.427-.307-2.1-.02-.507.213-.947.573-1.253 1.04-.2.3-.307.653-.307 1.013 0 .427.133.84.373 1.173.3.42.747.707 1.24.8.627.12 1.28-.027 1.787-.4.32-.24.567-.587.693-.98.08-.253.093-.527.04-.787-.067-.333-.247-.64-.507-.853-.333-.267-.773-.4-1.213-.373-.573.04-1.12.307-1.507.733-.24.267-.4.607-.453.973-.033.24-.007.487.08.707.107.28.307.52.573.673.333.193.727.253 1.107.173.48-.1.907-.373 1.173-.773.167-.253.24-.547.213-.84-.033-.373-.2-.727-.473-.987-.347-.327-.827-.48-1.307-.427-.6.067-1.147.387-1.507.873-.227.307-.347.687-.347 1.073 0 .453.147.893.413 1.24.333.427.8.707 1.32.787.653.1 1.327-.067 1.84-.453.32-.24.567-.573.707-.96.093-.253.12-.527.08-.787-.053-.333-.2-.653-.427-.907-.287-.32-.68-.513-1.093-.547-.533-.04-1.067.133-1.467.48-.253.22-.427.527-.487.867-.04.223-.007.453.093.653.127.253.347.453.613.573.333.15.707.173 1.053.067.44-.133.827-.413 1.067-.813.15-.253.213-.547.173-.833-.053-.367-.233-.707-.52-.947-.36-.3-.84-.427-1.307-.347-.587.1-1.12.467-1.427 1-.19.33-.26.72-.2 1.093.08.47.33.9.72 1.187.49.36 1.133.473 1.733.307.76-.21 1.407-.787 1.707-1.573.19-.5.2-1.053.027-1.56-.22-.64-.67-1.18-1.267-1.507-.75-.41-1.65-.453-2.433-.107-.62.273-1.133.767-1.413 1.4-.177.4-.213.853-.107 1.28.133.54.453 1.02.907 1.347.573.41 1.3.573 2.007.433.89-.177 1.68-.747 2.133-1.573.287-.523.373-1.14.24-1.72-.167-.733-.633-1.367-1.267-1.773-.8-.51-1.8-.58-2.653-.187-.673.31-1.213.86-1.493 1.553-.177.44-.193.927-.04 1.38.19.573.573 1.06 1.087 1.36.647.38 1.453.427 2.147.127.873-.38 1.553-1.167 1.773-2.12.14-.6.067-1.227-.207-1.773-.343-.687-.927-1.207-1.653-1.467-.913-.327-1.933-.2-2.733.347-.633.433-1.08 1.107-1.227 1.867-.093.48-.027 1 .193 1.44.277.553.747.98 1.32 1.207.72.28 1.533.24 2.22-.107.863-.433 1.48-1.28 1.627-2.24.093-.6.007-1.213-.247-1.76-.32-.687-.863-1.227-1.54-1.533-.85-.387-1.853-.327-2.653.16-.633.387-1.107.993-1.307 1.707-.127.45-.107.933.053 1.373.2.553.573 1.02 1.067 1.307.62.36 1.4.4 2.053.107.82-.367 1.4-1.133 1.52-2.027.077-.56-.007-1.133-.233-1.647-.287-.647-.773-1.173-1.4-1.467-.787-.367-1.713-.327-2.467.107-.593.347-1.04.893-1.227 1.553-.117.42-.093.873.067 1.28.2.513.553.947 1.007 1.213.567.333 1.287.367 1.893.087.76-.353 1.293-1.067 1.407-1.893.07-.52-.04-1.053-.307-1.507-.337-.567-.867-.98-1.487-1.16-.78-.227-1.627-.067-2.287.427-.52.387-.893.96-1.013 1.6-.08.4-.04.82.107 1.2.187.48.507.893.933 1.173.537.353 1.22.427 1.847.2.787-.287 1.387-.933 1.573-1.753.117-.52.047-1.067-.2-1.547-.313-.6-.827-1.053-1.46-1.287-.8-.293-1.707-.173-2.4.32-.55.393-.94 1.007-1.067 1.693-.08.433-.027.887.153 1.287.227.5.607.913 1.08 1.173.593.327 1.32.353 1.947.073.787-.353 1.347-1.047 1.447-1.887.063-.527-.027-1.067-.253-1.547-.287-.6-.76-1.073-1.36-1.32-.753-.307-1.613-.2-2.287.273-.533.38-.913.933-1.04 1.567-.08.4-.04.827.12 1.213.2.487.547.893.993 1.147.56.32 1.253.367 1.847.127.747-.3 1.293-.933 1.427-1.72.083-.493-.013-1.007-.273-1.44-.327-.54-.847-.947-1.453-1.133-.76-.233-1.587-.093-2.24.373-.517.37-.88.913-.987 1.533-.067.393-.027.8.12 1.173.187.467.513.86.947 1.107.547.307 1.227.333 1.813.067.737-.333 1.267-.993 1.373-1.8.067-.507-.033-.027-.24-1.493-.26-.567-.707-.993-1.273-1.213-.713-.277-1.533-.147-2.133.347-.473.393-.8.947-.893 1.553-.06.38-.02.78.113 1.147.167.46.473.847.88 1.093.513.307 1.16.333 1.707.073.687-.327 1.187-.96 1.28-1.727.06-.48-.02-.98-.227-1.407-.26-.53-.693-.927-1.227-1.12-.667-.24-1.427-.12-2.013.313-.467.347-.787.853-.873 1.42-.054.36-.02.733.1 1.073.151.427.427.793.787 1.027.453.293 1.027.32 1.547.073.653-.313 1.12-.913 1.213-1.627.06-.447-.013-.907-.2-1.307-.234-.5-.634-.887-1.134-1.087-.627-.253-1.353-.147-1.893.287-.427.347-.72.853-.8 1.407-.05.347-.013.707.107 1.033.15.41.413.76.767.987.447.283.997.307 1.48.067.607-.3 1.047-.847 1.133-1.493.054-.407-.007-.827-.173-1.2-.21-.467-.567-.84-1.007-1.047-.553-.26-1.213-.187-1.693.193-.38.3-.633.747-.693 1.24-.04.313-.007.64.093.933.127.373.367.693.677.907.393.267.887.287 1.327.053.553-.293.947-.8 1.013-1.387.04-.367-.02-.747-.167-1.067-.187-.4-.507-.72-.893-.893-.487-.22-1.053-.16-1.487.16-.343.253-.573.64-.627 1.067-.033.28 0 .567.1.833.123.333.347.613.647.8.373.233.84.247 1.247.033.51-.267.873-.747.927-1.293.033-.347-.033-.7-.187-1.007-.193-.38-.507-.673-.887-.827-.477-.193-1.02-.127-1.433.18-.327.243-.547.607-.587 1.007-.027.253.013.513.113.747.127.293.347.54.633.693.36.193.78.193 1.14 0 .453-.247.773-.693.82-1.2.03-.32-.047-.647-.213-.927-.21-.347-.547-.593-.937-.693-.487-.127-1.007-.027-1.393.273-.307.237-.513.593-.547.973-.02.24.027.487.133.7.133.267.367.473.653.587.36.143.76.127 1.107-.047.433-.22.747-.607.793-1.067.027-.293-.053-.593-.22-.84-.21-.3-.54-.5-.907-.567-.46-.087-.933.04-1.307.347-.293.243-.487.593-.513.973-.017.227.033.453.14.653.133.24.353.427.613.533.327.133.693.107.993-.067.377-.207.64-.567.673-.973.02-.267-.06-.533-.227-.747-.21-.26-.527-.42-.867-.453-.427-.047-.867.093-1.16.373-.233.22-.373.533-.387.86-.007.207.047.413.153.587.133.207.347.353.593.413.307.073.627.027.887-.127.327-.193.553-.52.573-.887.013-.24-.073-.48-.24-.653-.21-.207-.507-.307-.8-.287-.373.033-.713.233-.907.547-.153.25-.2.553-.133.84.08.36.313.667.653.813.427.183.92.107 1.28-.193.453-.38.667-.96.567-1.52-.127-.707-.633-1.287-1.307-1.5-.847-.267-1.773.047-2.307.8-.333.473-.447 1.067-.313 1.627.173.7.673 1.267 1.36 1.473.86.26 1.8-.067 2.287-.833.307-.48.38-1.08.193-1.627-.233-.687-.773-1.233-1.48-1.407-.887-.22-1.827.147-2.247 1-.267.54-.267 1.173-.007 1.72.327.683.967 1.147 1.72 1.24 1.887.233 1.92-.867 2.133-1.587.133-.453.107-.94-.08-1.38-.233-.553-.667-.98-1.2-1.193-.667-.267-1.427-.127-1.987.367-.353.31-.587.74-.647 1.207-.04.313.007.64.133.927.16.36.453.647.813.807.453.2.987.16 1.393-.107.507-.333.827-.893.827-1.493 0-.4-.127-.787-.36-1.093-.293-.383-.747-.613-1.233-.627-.607-.02-1.2.247-1.573.733-.235.307-.375.687-.4 1.08-.013.26.04.52.153.753.143.293.387.527.687.653.377.16.807.127 1.153-.087.433-.267.727-.727.767-1.24.027-.34-.06-.68-.24-.967-.227-.36-.587-.607-.993-.667-.507-.073-1.027.107-1.393.487-.29.3-.46.707-.467 1.133-.007.287.067.573.213.813.183.3.473.52.813.607.427.107.88.007 1.213-.267.42-.347.647-.853.607-1.373-.053-.647-.427-1.227-.993-1.507-.713-.353-1.58-.227-2.133.333-.347.353-.56.833-.573 1.327-.007.333.08.66.253.933.217.34.567.573.967.627.5.067.993-.127 1.293-.507.373-.473.48-1.107.287-1.68-.247-.72-.88-1.227-1.64-1.32-.953-.12-1.9.4-2.273 1.293-.235.563-.2 1.213.093 1.747.367.667.993 1.127 1.74 1.24 1.013.153 2.013-.347 2.407-1.293.247-.593.207-1.273-.107-1.833-.393-.707-1.107-1.167-1.907-1.227-1.007-.073-1.973.533-2.273 1.493-.19.6-.127 1.273.167 1.827.367.693 1.047 1.147 1.82 1.213 1.027.087 2-.427 2.353-1.24.22-.51.2-1.1-.053-1.593-.32-.62-.907-1.053-1.573-1.16-.833-.133-1.673.307-2.027 1.08-.223.487-.22 1.053-.007 1.54.273.613.773 1.073 1.407 1.24.793.21 1.633-.027 2.127-.6.313-.36.473-.827.447-1.293-.033-.587-.32-1.133-.787-1.487-.587-.44-1.4-.527-2.067-.227-.527.237-.94.7-1.133 1.267-.12.36-.107.747.04 1.1.187.447.533.8.967.96.547.2 1.16.093 1.613-.287.567-.477.8-1.24.587-1.92-.27-.853-.973-1.453-1.867-1.507-1.12-.067-2.153.707-2.427 1.8-.173.687-.033 1.427.373 1.96.507.667 1.307 1 2.107.887 1.007-.14 1.873-.847 2.127-1.827.16-.617.007-1.287-.413-1.8-.527-.64-1.347-.933-2.153-.773-.633.127-1.2.507-1.547 1.04-.22.34-.307.747-.253 1.147.067.507.333.973.733 1.28.5.387 1.173.487 1.793.267.78-.277 1.347-.987 1.447-1.813.063-.52-.047-1.053-.307-1.507-.327-.567-.867-.973-1.507-1.12-.8-.187-1.64.067-2.233.673-.373.38-.607.887-.647 1.427-.027.36.047.727.213 1.047.207.4.547.72.953.887.51.21 1.087.173 1.56-.1.593-.343.973-.967 1.007-1.647.02-.427-.107-.847-.353-1.173-.31-.407-.787-.653-1.293-.673-.633-.027-1.253.273-1.607.78-.223.32-.32.72-.267 1.107.067.487.347.927.773 1.193.533.333 1.227.347 1.793.033.713-.393 1.173-1.187 1.173-2.027 0-.547-.2-1.073-.553-1.467-.443-.493-1.087-.747-1.747-.693-.827.067-1.58.567-1.92 1.333-.213.48-.213 1.027-.007 1.513.267.613.747 1.087 1.36 1.267.767.227 1.6-.027 2.107-.647.32-.393.48-.893.427-1.393-.067-.627-.407-1.193-.927-1.547-.653-.44-1.513-.44-2.167 0-.413.28-.707.72-.8 1.213-.06.32-.033.66.08.967.143.387.413.707.767.907.447.253 1.007.253 1.453-.007.56-.327.927-.927.953-1.573.02-.41-.087-.813-.3-1.147-.267-.42-.693-.707-1.173-.787-.6-.1-1.227.127-1.627.587-.253.29-.407.66-.427 1.04-.013.253.04.507.153.733.143.287.387.513.687.627.377.143.8.1 1.133-.107.42-.267.693-.72.707-1.213.007-.313-.087-.62-.267-.867-.227-.307-.573-.487-.947-.507-.467-.027-.92.187-1.213.573-.18.24-.273.547-.253.853.027.387.207.747.507.987.373.3.873.367 1.313.173.553-.243.933-.787.98-1.4.03-.387-.073-.78-.287-1.107-.27-.407-.687-.687-1.147-.747-.573-.073-1.153.153-1.473.587-.203.273-.307.613-.287.953.033.427.253.82.587 1.067.42.307.98.333 1.427.073.56-.327.907-.947.9-1.607-.007-.417-.147-.82-.393-1.133-.31-.393-.767-.627-1.253-.633-.607-.007-1.193.287-1.513.773-.203.307-.287.687-.233 1.047.067.453.313.86.693 1.107.477.307 1.093.307 1.573 0 .6-.387.94-1.08.873-1.773-.08-.873-.687-1.6-1.547-1.847-1.08-.307-2.227.233-2.727 1.267-.314.647-.267 1.413.127 2.02.493.757 1.4 1.14 2.267.96 1.087-.227 1.967-1.133 2.133-2.24.107-.693-.053-1.413-.44-2-.487-.733-1.3-1.16-2.16-1.133-1.08.033-2.08.693-2.467 1.713-.24.64-.2 1.36.107 1.973.387.773 1.107 1.273 1.927 1.347 1.027.093 2.007-.487 2.407-1.44.25-.6.227-1.287-.067-1.873-.367-.733-1.047-1.227-1.827-1.32-.98-.12-1.94.4-2.307 1.293-.23.56-.2 1.213.08 1.753.353.677.973 1.147 1.68 1.267.887.15 1.773-.253 2.173-1.013.25-.48.253-1.04.007-1.527-.31-.607-.853-1.02-1.487-1.133-.8-.143-1.613.187-1.987.84-.237.413-.3.907-.173 1.367.16.577.573 1.047 1.133 1.267.703.273 1.507.073 1.987-.5.303-.36.44-.827.38-1.28-.077-.57-.407-1.087-.9-1.4-.62-.393-1.44-.393-2.06 0-.393.25-.667.647-.747 1.1-.05.3-.007.613.12.887.16.347.447.613.787.747.427.167.913.127 1.287-.107.467-.293.773-.8.793-1.353.013-.35-.087-.693-.28-.98-.243-.36-.62-.593-1.033-.633-.52-.05-1.04.2-1.313.647-.173.283-.233.627-.173.947.077.403.313.76.653.967.427.26.967.233 1.367-.067.5-.373.747-.987.647-1.573-.127-.737-.653-1.347-1.367-1.54-.9-.24-1.86.173-2.227 1.04-.23.55-.167 1.173.173 1.673.427.627 1.16.93 1.887.773.913-.197 1.627-.933 1.76-1.853.083-.58-.067-1.173-.413-1.647-.433-.587-1.133-.887-1.847-.787-.893.127-1.667.747-1.887 1.627-.137.553-.04 1.147.26 1.627.377.6 1.027.953 1.72.933.873-.027 1.667-.567 1.96-1.387.18-.513.133-1.08-.133-1.56-.333-.6-.907-.993-1.567-1.067-.827-.093-1.64.373-1.973 1.147-.21.487-.18 1.04.08 1.507.33.583.927.94 1.567.933.8-.007 1.54-.507 1.827-1.267.18-.48.147-1.027-.1-1.487-.313-.573-.853-.953-1.473-1.013-.78-.077-1.533.347-1.84 1.04-.193.437-.18.933.04 1.367.277.54.787.893 1.353.933.713.053 1.387-.347 1.647-1.013.163-.42.133-.893-.087-1.287-.277-.493-.767-.813-1.313-.853-.687-.053-1.347.293-1.613.92-.167.397-.153.853.04 1.24.243.487.687.8 1.2.84.647.053 1.267-.267 1.513-.853.157-.367.127-.787-.08-1.133-.26-.433-.707-.693-1.187-.707-.6-.02-1.167.287-1.407.787-.153.317-.133.687.053.987.233.373.627.587 1.047.567.527-.027 1-.347 1.193-.84.123-.313.093-.667-.083-.96-.222-.367-.618-.573-1.018-.547-.5.033-.953.353-1.133.827-.113.297-.08.627.093.9.217.34.587.533.98.513.493-.027.94-.313 1.113-.773.11-.29.08-.613-.08-.88-.202-.333-.578-.527-.978-.507-.5.027-.953.313-1.107.787-.097.297-.067.627.087.9.193.34.533.547.907.547.467 0 .887-.293 1.053-.733.105-.28.08-.593-.07-.853-.19-.32-.537-.513-.913-.507-.473.013-.907.273-1.087.707-.113.273-.093.587.053.84.183.313.513.507.867.513.443.013.853-.253 1.02-.673.105-.267.087-.567-.053-.82-.177-.3-.497-.487-.847-.493-.437.007-.84.253-1.007.653-.107.253-.093.54.033.78.16.3.453.487.773.507.4.027.787-.2.947-.567.1-.233.087-.5-.04-.72-.16-.273-.447-.427-.747-.44-.373-.02-.733.2-.88.547-.093.22-.087.467.02.68.133.267.38.433.667.453.36.027.707-.16.847-.473.087-.2.08-.427-.02-.62-.127-.24-.373-.373-.633-.387-.327-.02-.64.153-.773.427-.08.173-.08.373.007.54.107.2.313.313.533.327.277.02.547-.113.667-.36.077-.153.073-.327-.013-.473-.107-.183-.293-.287-.493-.3-.25-.02-.493.093-.607.307-.073.133-.073.3.007.427.1.153.273.233.453.247.227.02.447-.08.553-.267.067-.12.067-.26-.007-.373-.093-.137-.253-.213-.413-.227-.2-.02-.4.067-.507.22-.067.1-.067.227.007.32.093.12.233.173.373.187.18.02.353-.053.44-.2.053-.087.053-.2-.007-.28-.073-.1-.2-.147-.32-.16-.153-.02-.307.047-.387.167-.053.073-.053.167.007.233.073.087.173.12.273.133.127.02.253-.033.32-.133.04-.067.04-.147-.007-.207-.06-.073-.153-.107-.247-.113-.12-.013-.24.027-.3.113-.04.053-.04.12.007.167.06.06.133.087.213.1.1.013.2-.02.253-.1.033-.047.033-.107-.007-.147-.047-.053-.12-.073-.187-.08-.087-.013-.173.013-.227.08-.033.04-.033.093.007.127.047.04.107.06.167.067.08.013.16-.013.2-.073.027-.033.027-.08-.007-.107-.04-.04-.093-.053-.147-.06-.067-.007-.133.007-.173.053-.027.027-.027.067.007.093.04.033.087.047.133.053.067.007.133-.007.167-.047.02-.027.02-.067-.007-.087-.033-.033-.073-.04-.113-.047-.053-.007-.107.007-.14.04-.02.02-.02.053.007.073.033.027.067.033.107.04.053.007.107-.007.133-.033.013-.02.013-.053-.007-.067-.027-.027-.06-.033-.093-.04-.04-.007-.08.007-.107.027-.013.013-.013.04.007.053.027.02.053.027.08.033.04.007.08-.007.1-.027.013-.013.013-.04-.007-.053-.02-.02-.047-.027-.073-.033-.033-.007-.067.007-.087.02-.013.013-.013.033.007.047.02.013.04.02.067.027.033.007.067-.007.08-.02.007-.013.007-.033-.007-.04-.013-.013-.033-.02-.053-.027-.027-.007-.053.007-.067.013-.007.007-.007.027.007.033.013.013.027.013.047.02.027.007.053-.007.06-.013.007-.007.007-.027-.007-.033-.013-.013-.027-.013-.04-.02z" fill="#00758F"/>
</svg>