<svg viewBox="0 0 24 24" fill="none" xmlns="http://www.w3.org/2000/svg">
<path d="M11.998 0C5.368 0 4.954 2.322 4.954 2.322l.01 2.402h7.098v1.004H4.954s-3.321-.378-3.321 6.966c0 7.346 2.908 7.087 2.908 7.087h1.735v-2.44s-.093-2.908 2.863-2.908h7.063s2.786.045 2.786-2.693V5.25s.418-5.25-6.99-5.25zm-4.318 3.028c.671 0 1.217.546 1.217 1.217 0 .671-.546 1.217-1.217 1.217-.671 0-1.217-.546-1.217-1.217 0-.671.546-1.217 1.217-1.217z" fill="#000000"/>
<path d="M12.002 24c6.63 0 7.044-2.322 7.044-2.322l-.01-2.402h-7.098v-1.004h7.108s3.321.378 3.321-6.966c0-7.346-2.908-7.087-2.908-7.087h-1.735v2.44s.093 2.908-2.863 2.908H7.798s-2.786-.045-2.786 2.693v5.49s-.418 5.25 6.99 5.25zm4.318-3.028c-.671 0-1.217-.546-1.217-1.217 0-.671.546-1.217 1.217-1.217.671 0 1.217.546 1.217 1.217 0 .671-.546 1.217-1.217 1.217z" fill="#000000"/>
</svg>